<?xml version="1.0" encoding="UTF-8"?>
<svg id="Capa_1" xmlns="http://www.w3.org/2000/svg" version="1.1" viewBox="0 0 887 321.9">
  <!-- Generator: Adobe Illustrator 29.0.1, SVG Export Plug-In . SVG Version: 2.1.0 Build 192)  -->
  <defs>
    <style>
      .st0 {
        fill: #fff;
      }

      .st1 {
        fill: #62e05d;
      }

      .st2 {
        fill: #2c6a39;
      }
    </style>
  </defs>
  <rect class="st2" x="-2551.1" y="-388.9" width="1080" height="1084.9"/>
  <g>
    <path class="st1" d="M-2313.4,331.3h-66.8c-25.3-53.1-39.4-112.5-39.4-175.2s14.1-122.1,39.4-175.2h66.8v350.5Z"/>
    <path class="st1" d="M-1987.6,42v226c52.4-10.9,91.9-57.4,91.9-113s-39.5-102.1-91.9-113ZM-2126.5,155c0,55.6,39.5,102.1,91.9,113V42c-52.4,10.9-91.9,57.4-91.9,113ZM-2126.5,155c0,55.6,39.5,102.1,91.9,113V42c-52.4,10.9-91.9,57.4-91.9,113ZM-2034.6-5.7v-246.1c-133.9,7.6-250.5,79.6-319.3,185.6h87.5v444.5h-87.5c68.8,106,185.5,178,319.3,185.6v-248.2c-78.5-11.4-138.9-79.1-138.9-160.7S-2113.1,5.7-2034.6-5.7ZM-1987.6,42v226c52.4-10.9,91.9-57.4,91.9-113s-39.5-102.1-91.9-113ZM-1641.9-19.2h-66.9v350.5h66.9c25.3-53.1,39.4-112.5,39.4-175.2s-14.1-122.1-39.4-175.2ZM-2126.5,155c0,55.6,39.5,102.1,91.9,113V42c-52.4,10.9-91.9,57.4-91.9,113ZM-1987.6,42v226c52.4-10.9,91.9-57.4,91.9-113s-39.5-102.1-91.9-113ZM-1755.8-66.2h87.6c-68.8-106-185.5-178-319.3-185.6V-5.7c78.5,11.4,138.9,79.2,138.9,160.7s-60.5,149.3-138.9,160.7v248.2c133.9-7.6,250.5-79.6,319.3-185.6h-87.6V-66.2ZM-1895.7,155c0-55.6-39.5-102.1-91.9-113v226c52.4-10.9,91.9-57.4,91.9-113ZM-2126.5,155c0,55.6,39.5,102.1,91.9,113V42c-52.4,10.9-91.9,57.4-91.9,113ZM-1987.6,42v226c52.4-10.9,91.9-57.4,91.9-113s-39.5-102.1-91.9-113ZM-2126.5,155c0,55.6,39.5,102.1,91.9,113V42c-52.4,10.9-91.9,57.4-91.9,113ZM-1987.6,42v226c52.4-10.9,91.9-57.4,91.9-113s-39.5-102.1-91.9-113ZM-2126.5,155c0,55.6,39.5,102.1,91.9,113V42c-52.4,10.9-91.9,57.4-91.9,113Z"/>
  </g>
  <g>
    <path class="st1" d="M47.7,605.2h-24.9c-9.4-19.8-14.7-42-14.7-65.4s5.3-45.6,14.7-65.4h24.9v130.8Z"/>
    <path class="st1" d="M169.2,497.3v84.3c19.6-4.1,34.3-21.4,34.3-42.2s-14.7-38.1-34.3-42.2ZM117.4,539.4c0,20.7,14.7,38.1,34.3,42.2v-84.3c-19.6,4.1-34.3,21.4-34.3,42.2ZM117.4,539.4c0,20.7,14.7,38.1,34.3,42.2v-84.3c-19.6,4.1-34.3,21.4-34.3,42.2ZM151.7,479.5v-91.8c-50,2.8-93.5,29.7-119.2,69.3h32.7v165.9h-32.7c25.7,39.5,69.2,66.4,119.2,69.3v-92.6c-29.3-4.3-51.8-29.5-51.8-60s22.6-55.7,51.8-60ZM169.2,497.3v84.3c19.6-4.1,34.3-21.4,34.3-42.2s-14.7-38.1-34.3-42.2ZM298.2,474.4h-24.9v130.8h24.9c9.4-19.8,14.7-42,14.7-65.4s-5.3-45.6-14.7-65.4ZM117.4,539.4c0,20.7,14.7,38.1,34.3,42.2v-84.3c-19.6,4.1-34.3,21.4-34.3,42.2ZM169.2,497.3v84.3c19.6-4.1,34.3-21.4,34.3-42.2s-14.7-38.1-34.3-42.2ZM255.7,456.9h32.7c-25.7-39.5-69.2-66.4-119.2-69.3v91.8c29.3,4.3,51.8,29.5,51.8,60s-22.6,55.7-51.8,60v92.6c50-2.8,93.5-29.7,119.2-69.3h-32.7v-165.9ZM203.5,539.4c0-20.7-14.7-38.1-34.3-42.2v84.3c19.6-4.1,34.3-21.4,34.3-42.2ZM117.4,539.4c0,20.7,14.7,38.1,34.3,42.2v-84.3c-19.6,4.1-34.3,21.4-34.3,42.2ZM169.2,497.3v84.3c19.6-4.1,34.3-21.4,34.3-42.2s-14.7-38.1-34.3-42.2ZM117.4,539.4c0,20.7,14.7,38.1,34.3,42.2v-84.3c-19.6,4.1-34.3,21.4-34.3,42.2ZM169.2,497.3v84.3c19.6-4.1,34.3-21.4,34.3-42.2s-14.7-38.1-34.3-42.2ZM117.4,539.4c0,20.7,14.7,38.1,34.3,42.2v-84.3c-19.6,4.1-34.3,21.4-34.3,42.2Z"/>
  </g>
  <g>
    <path class="st1" d="M47.7,224.9h-24.9c-9.4-19.8-14.7-42-14.7-65.4s5.3-45.6,14.7-65.4h24.9v130.8Z"/>
    <path class="st1" d="M169.2,116.9v84.3c19.6-4.1,34.3-21.4,34.3-42.2s-14.7-38.1-34.3-42.2ZM117.4,159.1c0,20.7,14.7,38.1,34.3,42.2v-84.3c-19.6,4.1-34.3,21.4-34.3,42.2ZM117.4,159.1c0,20.7,14.7,38.1,34.3,42.2v-84.3c-19.6,4.1-34.3,21.4-34.3,42.2ZM151.7,99.1V7.3c-50,2.8-93.5,29.7-119.2,69.3h32.7v165.9h-32.7c25.7,39.5,69.2,66.4,119.2,69.3v-92.6c-29.3-4.3-51.8-29.5-51.8-60s22.6-55.7,51.8-60ZM169.2,116.9v84.3c19.6-4.1,34.3-21.4,34.3-42.2s-14.7-38.1-34.3-42.2ZM298.2,94.1h-24.9v130.8h24.9c9.4-19.8,14.7-42,14.7-65.4s-5.3-45.6-14.7-65.4ZM117.4,159.1c0,20.7,14.7,38.1,34.3,42.2v-84.3c-19.6,4.1-34.3,21.4-34.3,42.2ZM169.2,116.9v84.3c19.6-4.1,34.3-21.4,34.3-42.2s-14.7-38.1-34.3-42.2ZM255.7,76.5h32.7C262.7,37,219.2,10.1,169.2,7.3v91.8c29.3,4.3,51.8,29.5,51.8,60s-22.6,55.7-51.8,60v92.6c50-2.8,93.5-29.7,119.2-69.3h-32.7V76.5ZM203.5,159.1c0-20.7-14.7-38.1-34.3-42.2v84.3c19.6-4.1,34.3-21.4,34.3-42.2ZM117.4,159.1c0,20.7,14.7,38.1,34.3,42.2v-84.3c-19.6,4.1-34.3,21.4-34.3,42.2ZM169.2,116.9v84.3c19.6-4.1,34.3-21.4,34.3-42.2s-14.7-38.1-34.3-42.2ZM117.4,159.1c0,20.7,14.7,38.1,34.3,42.2v-84.3c-19.6,4.1-34.3,21.4-34.3,42.2ZM169.2,116.9v84.3c19.6-4.1,34.3-21.4,34.3-42.2s-14.7-38.1-34.3-42.2ZM117.4,159.1c0,20.7,14.7,38.1,34.3,42.2v-84.3c-19.6,4.1-34.3,21.4-34.3,42.2Z"/>
  </g>
  <g>
    <path class="st0" d="M381.2,12h45.6v14.7h-27v36.8h20.8v14.7h-20.8v42.2h27.7v14.7h-46.3V12Z"/>
    <path class="st0" d="M461.4,135.5c-2.7-.5-5.5-1.5-8.2-3-2.7-1.5-5.2-3.8-7.4-6.8-2.2-3.1-4-7.1-5.4-12-1.4-4.9-2.1-11.1-2.1-18.6v-43.6c0-6.2.5-11.5,1.5-15.9,1-4.4,2.3-8.1,3.9-11.1,1.6-3,3.5-5.4,5.6-7.2,2.1-1.8,4.3-3.1,6.6-4.1s4.6-1.5,6.8-1.8c2.3-.3,4.3-.4,6.3-.4s3.9.1,6.1.4c2.2.3,4.5.8,6.7,1.7,2.2.9,4.4,2.2,6.5,4,2.1,1.8,4,4.1,5.6,7.1,1.6,3,2.9,6.7,3.9,11.2,1,4.4,1.5,9.8,1.5,16.1v43.6c0,7.1-.7,13.1-2,17.9-1.3,4.8-3.1,8.8-5.2,11.9-2.1,3.1-4.5,5.4-7.1,7-2.6,1.6-5.2,2.7-7.8,3.4v1.1c0,2.4.3,4.3.8,5.7.6,1.4,1.4,2.6,2.5,3.4s2.4,1.3,4,1.6c1.6.3,3.5.4,5.6.4h2c.7,0,1.3,0,1.9,0v10.1c-2.4,1.1-4.6,1.8-6.6,2.2-2.1.4-4.3.6-6.6.6s-2.2,0-3.5-.2c-1.3-.1-2.7-.4-4.2-.9s-2.8-1.1-4.2-1.9c-1.4-.8-2.6-2-3.7-3.5-1.1-1.5-2-3.3-2.7-5.4-.7-2.2-1-4.8-1-7.9v-4.8ZM469,122.2c1.8,0,3.4-.3,4.8-.9,1.4-.6,2.5-1.7,3.4-3.2.9-1.5,1.6-3.6,2-6.1.5-2.5.7-5.7.7-9.5v-56c0-3.9-.2-7.2-.7-9.9-.5-2.6-1.1-4.8-2-6.4-.9-1.6-2-2.8-3.4-3.4-1.4-.7-3-1-4.8-1s-3.5.3-4.9,1c-1.4.7-2.5,1.8-3.5,3.4-.9,1.6-1.6,3.7-2.1,6.4-.5,2.6-.7,5.9-.7,9.9v56c0,3.8.2,7,.7,9.5.5,2.5,1.1,4.6,2.1,6.1.9,1.5,2.1,2.6,3.5,3.2,1.4.6,3,.9,4.9.9Z"/>
    <path class="st0" d="M517.3,12h18.8v90.2c0,3.8.2,7,.6,9.6.4,2.5,1,4.6,1.8,6.1.8,1.5,1.9,2.6,3.2,3.2,1.3.6,2.9,1,4.7,1s3.4-.3,4.8-1c1.4-.6,2.5-1.7,3.4-3.2.9-1.5,1.6-3.5,2-6.1.5-2.5.7-5.7.7-9.6V12h18.6v85.3c0,6-.5,11.1-1.4,15.4-1,4.3-2.2,7.9-3.8,10.7s-3.4,5.2-5.4,6.8c-2,1.7-4.2,3-6.3,3.9-2.2.9-4.4,1.5-6.5,1.7-2.2.2-4.1.4-5.9.4s-3.7-.1-5.9-.4c-2.1-.2-4.3-.8-6.5-1.7-2.2-.9-4.3-2.2-6.3-3.9-2-1.7-3.8-4-5.4-6.8s-2.8-6.5-3.8-10.7c-.9-4.3-1.4-9.4-1.4-15.5V12Z"/>
    <path class="st0" d="M596.6,12h18.7v123.1h-18.7V12Z"/>
    <path class="st0" d="M636.3,12h18.7c2.4,0,4.9.1,7.7.3,2.8.2,5.6.7,8.4,1.5,2.8.8,5.5,2,8.1,3.6,2.6,1.6,4.9,3.9,7,6.7,2,2.8,3.6,6.3,4.9,10.6,1.2,4.2,1.8,9.4,1.8,15.4v4.3c0,6.6-.6,12.2-1.7,16.9-1.1,4.7-2.6,8.6-4.5,11.8-1.9,3.2-4,5.8-6.5,7.7-2.5,1.9-5,3.4-7.7,4.4-2.7,1-5.4,1.6-8.1,1.9-2.7.3-5.3.5-7.7.5h-1.8v37.5h-18.7V12ZM655.9,84c3.4,0,6.2-.5,8.5-1.5,2.3-1,4.1-2.5,5.5-4.6,1.4-2.1,2.4-4.8,3-8.1.6-3.3.9-7.2.9-11.9v-11.1c0-3.7-.3-6.8-.8-9.5-.5-2.7-1.5-4.9-2.8-6.6-1.4-1.7-3.2-3-5.5-3.9-2.3-.8-5.2-1.3-8.7-1.3h-.9v58.3h.9Z"/>
    <path class="st0" d="M734.3,136.2c-2,0-4.1-.2-6.4-.5-2.3-.3-4.6-1-6.8-2-2.3-1-4.4-2.4-6.5-4.3-2.1-1.8-3.9-4.3-5.5-7.3-1.6-3-2.9-6.8-3.9-11.2-1-4.4-1.4-9.7-1.4-15.9v-43.6c0-6.2.5-11.5,1.5-15.9,1-4.4,2.3-8.1,3.9-11.1,1.6-3,3.5-5.4,5.6-7.2,2.1-1.8,4.3-3.1,6.6-4.1s4.6-1.5,6.8-1.8c2.3-.3,4.3-.4,6.3-.4s3.9.1,6.1.4c2.2.3,4.5.8,6.7,1.7,2.2.9,4.4,2.2,6.5,4,2.1,1.8,4,4.1,5.6,7.1,1.6,3,2.9,6.7,3.9,11.2,1,4.4,1.5,9.8,1.5,16.1v43.6c0,6.1-.5,11.4-1.5,15.7-1,4.4-2.3,8.1-4,11.2-1.6,3.1-3.5,5.5-5.7,7.4-2.1,1.9-4.3,3.3-6.6,4.3-2.2,1-4.5,1.7-6.7,2.1-2.2.3-4.2.5-6,.5ZM734.3,122.2c1.8,0,3.4-.3,4.8-.9,1.4-.6,2.5-1.7,3.4-3.2.9-1.5,1.6-3.6,2-6.1.5-2.5.7-5.7.7-9.5v-56c0-3.9-.2-7.2-.7-9.9-.5-2.6-1.1-4.8-2-6.4-.9-1.6-2-2.8-3.4-3.4-1.4-.7-3-1-4.8-1s-3.5.3-4.9,1c-1.4.7-2.5,1.8-3.5,3.4-.9,1.6-1.6,3.7-2.1,6.4-.5,2.6-.7,5.9-.7,9.9v56c0,3.8.2,7,.7,9.5.5,2.5,1.1,4.6,2.1,6.1.9,1.5,2.1,2.6,3.5,3.2,1.4.6,3,.9,4.9.9Z"/>
    <path class="st0" d="M381.2,189.2h45.6v14.7h-27v36.8h20.8v14.7h-20.8v42.2h27.7v14.7h-46.3v-123.1Z"/>
    <path class="st0" d="M436.3,287.3c0-2.6.2-5.1.5-7.3.3-2.2.8-4.6,1.4-7.2h14.5v6c0,3.3.2,6.2.6,8.8.4,2.5,1.1,4.7,2,6.5.9,1.8,2.2,3.1,3.7,4,1.6.9,3.5,1.3,5.7,1.3,3.6,0,6.3-1,8.1-2.9,1.9-1.9,2.8-4.8,2.8-8.5s-.1-3.7-.4-5.3c-.3-1.6-.7-3.2-1.4-4.8-.6-1.6-1.5-3.3-2.6-5-1.1-1.8-2.5-3.7-4.3-5.9l-19.5-23.1c-3.5-4.4-6.1-8.9-8-13.4-1.9-4.5-2.8-9.3-2.8-14.4s.6-7.8,1.9-11.2c1.3-3.4,3.1-6.4,5.5-8.8,2.4-2.5,5.4-4.4,8.9-5.8s7.5-2.1,12-2.1,10,.8,13.6,2.3c3.6,1.5,6.5,3.6,8.7,6.1,2.2,2.5,3.7,5.3,4.6,8.4.9,3.1,1.3,6.2,1.3,9.3s-.2,5.1-.6,7.3c-.4,2.2-.9,4.7-1.4,7.4h-14.4v-5.8c0-6.5-.9-11.5-2.8-15-1.9-3.5-4.9-5.2-9.2-5.2s-6.1,1-7.9,2.9c-1.7,1.9-2.6,4.6-2.6,7.8s.1,3.3.4,4.7c.3,1.4.6,2.7,1.2,3.9.5,1.2,1.1,2.3,1.8,3.4.7,1.1,1.5,2.3,2.5,3.5l21.7,26.2c3.9,5.1,7,10.1,9.1,14.8,2.1,4.7,3.2,9.7,3.2,15s-.7,8.3-2.1,11.8c-1.4,3.5-3.3,6.5-5.9,8.9-2.5,2.5-5.6,4.3-9.2,5.7-3.6,1.3-7.7,2-12.2,2s-10.2-.7-13.9-2.2c-3.7-1.5-6.6-3.5-8.8-5.9-2.2-2.5-3.7-5.2-4.6-8.4-.9-3.1-1.3-6.3-1.3-9.6Z"/>
    <path class="st0" d="M521.3,203.9h-19.8v-14.7h58.2v14.7h-19.7v108.4h-18.7v-108.4Z"/>
    <path class="st0" d="M572.3,189.2h20.3c2.3,0,4.8,0,7.6.3,2.8.2,5.5.7,8.3,1.4,2.8.7,5.4,1.9,8,3.4,2.6,1.5,4.9,3.5,6.8,6.1,2,2.6,3.6,5.9,4.8,9.8,1.2,3.9,1.8,8.7,1.8,14.2v3.1c0,9.4-1.3,17-4,22.9-2.7,5.9-6.7,10.1-11.9,12.7l19.7,49.2h-19.7l-16.4-46.1h-7v46.1h-18.3v-123.1ZM593.5,252.7c3.3,0,6-.4,8.3-1.1s4.1-1.9,5.5-3.6c1.4-1.7,2.4-4,3-6.8.6-2.8.9-6.3.9-10.4v-9.7c0-3.2-.3-5.9-.9-8.2-.6-2.3-1.5-4.2-2.9-5.7-1.4-1.5-3.2-2.6-5.4-3.3-2.3-.7-5.1-1.1-8.5-1.1h-2.8v49.9h2.8Z"/>
    <path class="st0" d="M647.9,189.2h45.6v14.7h-27v36.8h20.8v14.7h-20.8v42.2h27.7v14.7h-46.3v-123.1Z"/>
    <path class="st0" d="M707.7,189.2h18.7v108.4h25.4v14.7h-44.1v-123.1Z"/>
    <path class="st0" d="M763.6,189.2h18.7v108.4h25.4v14.7h-44.1v-123.1Z"/>
    <path class="st0" d="M833.1,189.2h21.5l22.8,123.1h-18.9l-3.4-22.1h-22.5l-3.2,22.1h-19l22.7-123.1ZM852.9,276.2l-8.6-61.3h-.8l-8.7,61.3h18.2Z"/>
  </g>
</svg>